# Blender v2.80 (sub 75) OBJ File: ''
# www.blender.org
mtllib Wall.mtl
o Cube.001_Cube.002
v -1.600000 -0.910227 0.200000
v -1.040259 -1.400000 0.200000
v -1.585966 -1.019212 0.200000
v -1.544568 -1.122731 0.200000
v -1.477882 -1.215595 0.200000
v -1.389252 -1.293147 0.200000
v -1.283122 -1.351497 0.200000
v -1.164813 -1.387720 0.200000
v -1.040259 1.400000 0.200000
v -1.600000 0.910227 0.200000
v -1.164813 1.387720 0.200000
v -1.283122 1.351497 0.200000
v -1.389252 1.293147 0.200000
v -1.477882 1.215595 0.200000
v -1.544568 1.122731 0.200000
v -1.585966 1.019212 0.200000
v -1.040259 -1.400000 -0.200000
v -1.600000 -0.910227 -0.200000
v -1.164813 -1.387720 -0.200000
v -1.283122 -1.351497 -0.200000
v -1.389252 -1.293147 -0.200000
v -1.477882 -1.215595 -0.200000
v -1.544568 -1.122731 -0.200000
v -1.585966 -1.019212 -0.200000
v -1.600000 0.910227 -0.200000
v -1.040259 1.400000 -0.200000
v -1.585966 1.019212 -0.200000
v -1.544568 1.122731 -0.200000
v -1.477882 1.215595 -0.200000
v -1.389252 1.293147 -0.200000
v -1.283122 1.351497 -0.200000
v -1.164813 1.387720 -0.200000
v 1.040259 -1.400000 0.200000
v 1.600000 -0.910227 0.200000
v 1.164813 -1.387720 0.200000
v 1.283122 -1.351497 0.200000
v 1.389252 -1.293147 0.200000
v 1.477882 -1.215595 0.200000
v 1.544568 -1.122731 0.200000
v 1.585966 -1.019212 0.200000
v 1.600000 0.910227 0.200000
v 1.040259 1.400000 0.200000
v 1.585966 1.019212 0.200000
v 1.544568 1.122731 0.200000
v 1.477882 1.215595 0.200000
v 1.389252 1.293147 0.200000
v 1.283122 1.351497 0.200000
v 1.164813 1.387720 0.200000
v 1.600000 -0.910227 -0.200000
v 1.040259 -1.400000 -0.200000
v 1.585966 -1.019212 -0.200000
v 1.544568 -1.122731 -0.200000
v 1.477882 -1.215595 -0.200000
v 1.389252 -1.293147 -0.200000
v 1.283122 -1.351497 -0.200000
v 1.164813 -1.387720 -0.200000
v 1.040259 1.400000 -0.200000
v 1.600000 0.910227 -0.200000
v 1.164813 1.387720 -0.200000
v 1.283122 1.351497 -0.200000
v 1.389252 1.293147 -0.200000
v 1.477882 1.215595 -0.200000
v 1.544568 1.122731 -0.200000
v 1.585966 1.019212 -0.200000
vt 0.375000 0.793730
vt 0.352699 0.761333
vt 0.359939 0.758252
vt 0.367204 0.755488
vt 0.391465 0.753180
vt 0.399756 0.751444
vt 0.408999 0.750365
vt 0.418730 0.750000
vt 0.581270 0.750000
vt 0.591001 0.750365
vt 0.600244 0.751444
vt 0.608535 0.753180
vt 0.632796 0.755488
vt 0.640061 0.758252
vt 0.647301 0.761333
vt 0.625000 0.793730
vt 0.625000 0.956270
vt 0.623904 0.966001
vt 0.620669 0.975244
vt 0.615460 0.983535
vt 0.608535 0.990460
vt 0.600244 0.995669
vt 0.591001 0.998904
vt 0.581270 1.000000
vt 0.418730 1.000000
vt 0.408999 0.998904
vt 0.399756 0.995669
vt 0.391465 0.990460
vt 0.384540 0.983535
vt 0.379331 0.975244
vt 0.376096 0.966001
vt 0.375000 0.956270
vt 0.418730 0.500000
vt 0.581270 0.500000
vt 0.668730 0.500000
vt 0.831270 0.500000
vt 0.831270 0.750000
vt 0.668730 0.750000
vt 0.418730 0.000000
vt 0.581270 0.000000
vt 0.581270 0.250000
vt 0.418730 0.250000
vt 0.375000 0.293730
vt 0.376096 0.283999
vt 0.379331 0.274756
vt 0.384540 0.266465
vt 0.391465 0.259540
vt 0.399756 0.254331
vt 0.408999 0.251096
vt 0.591001 0.251096
vt 0.600244 0.254331
vt 0.608535 0.259540
vt 0.615460 0.266465
vt 0.620669 0.274756
vt 0.623904 0.283999
vt 0.625000 0.293730
vt 0.625000 0.456270
vt 0.647301 0.488667
vt 0.640061 0.491748
vt 0.632796 0.494512
vt 0.608535 0.496820
vt 0.600244 0.498556
vt 0.591001 0.499635
vt 0.408999 0.499635
vt 0.399756 0.498556
vt 0.391465 0.496820
vt 0.367204 0.494512
vt 0.359939 0.491748
vt 0.352699 0.488667
vt 0.375000 0.456270
vt 0.168730 0.500000
vt 0.168730 0.750000
vt 0.158999 0.750000
vt 0.158999 0.500000
vt 0.149756 0.750000
vt 0.149756 0.500000
vt 0.141465 0.750000
vt 0.141465 0.500000
vt 0.125000 0.750000
vt 0.125000 0.500000
vt 0.391465 0.250000
vt 0.391465 0.000000
vt 0.399756 0.000000
vt 0.399756 0.250000
vt 0.408999 0.000000
vt 0.408999 0.250000
vt 0.841001 0.500000
vt 0.841001 0.750000
vt 0.850244 0.500000
vt 0.850244 0.750000
vt 0.858535 0.500000
vt 0.858535 0.750000
vt 0.875000 0.500000
vt 0.875000 0.750000
vt 0.608535 0.000000
vt 0.608535 0.250000
vt 0.600244 0.250000
vt 0.600244 0.000000
vt 0.591001 0.250000
vt 0.591001 0.000000
vt 0.331270 0.750000
vt 0.331270 0.500000
vn -0.0000 0.0000 1.0000
vn 0.9980 -0.0640 0.0000
vn 0.9980 0.0640 0.0000
vn 0.0491 0.9988 0.0000
vn -0.0491 0.9988 0.0000
vn -0.9980 -0.0640 0.0000
vn -0.9980 0.0640 0.0000
vn 0.0000 0.0000 -1.0000
vn -0.0491 -0.9988 0.0000
vn -0.1964 -0.9805 0.0000
vn -0.3893 -0.9211 0.0000
vn -0.5735 -0.8192 0.0000
vn -0.7402 -0.6723 0.0000
vn -0.8768 -0.4808 0.0000
vn -0.9679 -0.2515 0.0000
vn -0.1964 0.9805 0.0000
vn -0.3893 0.9211 0.0000
vn -0.5735 0.8192 0.0000
vn -0.7402 0.6723 0.0000
vn -0.8768 0.4808 0.0000
vn -0.9679 0.2515 0.0000
vn 0.0491 -0.9988 0.0000
vn 0.1964 -0.9805 0.0000
vn 0.3893 -0.9211 0.0000
vn 0.5735 -0.8192 0.0000
vn 0.7402 -0.6723 0.0000
vn 0.8768 -0.4808 0.0000
vn 0.9679 -0.2515 0.0000
vn 0.1964 0.9805 0.0000
vn 0.3893 0.9211 0.0000
vn 0.5735 0.8192 0.0000
vn 0.7402 0.6723 0.0000
vn 0.8768 0.4808 0.0000
vn 0.9679 0.2515 0.0000
usemtl None
s 1
f 33/1/1 35/2/1 36/3/1 37/4/1 38/5/1 39/6/1 40/7/1 34/8/1 41/9/1 43/10/1 44/11/1 45/12/1 46/13/1 47/14/1 48/15/1 42/16/1 9/17/1 11/18/1 12/19/1 13/20/1 14/21/1 15/22/1 16/23/1 10/24/1 1/25/1 3/26/1 4/27/1 5/28/1 6/29/1 7/30/1 8/31/1 2/32/1
f 49/33/2 58/34/3 41/9/3 34/8/2
f 57/35/4 26/36/5 9/37/5 42/38/4
f 1/39/6 10/40/7 25/41/7 18/42/6
f 17/43/8 19/44/8 20/45/8 21/46/8 22/47/8 23/48/8 24/49/8 18/42/8 25/41/8 27/50/8 28/51/8 29/52/8 30/53/8 31/54/8 32/55/8 26/56/8 57/57/8 59/58/8 60/59/8 61/60/8 62/61/8 63/62/8 64/63/8 58/34/8 49/33/8 51/64/8 52/65/8 53/66/8 54/67/8 55/68/8 56/69/8 50/70/8
f 17/71/9 2/72/9 8/73/10 19/74/10
f 19/74/10 8/73/10 7/75/11 20/76/11
f 20/76/11 7/75/11 6/77/12 21/78/12
f 21/78/12 6/77/12 5/79/13 22/80/13
f 22/81/13 5/82/13 4/83/14 23/84/14
f 23/84/14 4/83/14 3/85/15 24/86/15
f 24/86/15 3/85/15 1/39/6 18/42/6
f 9/37/5 26/36/5 32/87/16 11/88/16
f 11/88/16 32/87/16 31/89/17 12/90/17
f 12/90/17 31/89/17 30/91/18 13/92/18
f 13/92/18 30/91/18 29/93/19 14/94/19
f 14/95/19 29/96/19 28/97/20 15/98/20
f 15/98/20 28/97/20 27/99/21 16/100/21
f 16/100/21 27/99/21 25/41/7 10/40/7
f 33/101/22 50/102/22 56/69/23 35/2/23
f 35/2/23 56/69/23 55/68/24 36/3/24
f 36/3/24 55/68/24 54/67/25 37/4/25
f 37/4/25 54/67/25 53/66/26 38/5/26
f 38/5/26 53/66/26 52/65/27 39/6/27
f 39/6/27 52/65/27 51/64/28 40/7/28
f 40/7/28 51/64/28 49/33/2 34/8/2
f 57/35/4 42/38/4 48/15/29 59/58/29
f 59/58/29 48/15/29 47/14/30 60/59/30
f 60/59/30 47/14/30 46/13/31 61/60/31
f 61/60/31 46/13/31 45/12/32 62/61/32
f 62/61/32 45/12/32 44/11/33 63/62/33
f 63/62/33 44/11/33 43/10/34 64/63/34
f 64/63/34 43/10/34 41/9/3 58/34/3
f 17/71/9 50/102/22 33/101/22 2/72/9
