# Blender v2.80 (sub 75) OBJ File: ''
# www.blender.org
mtllib Arch.mtl
o Arch.001
v -0.998796 -0.000000 0.049068
v -1.000000 -0.000000 -0.000000
v -1.000000 0.500000 0.000000
v -0.998796 0.500000 0.049068
v -0.995185 -0.000000 0.098017
v -0.995185 0.500000 0.098017
v -0.989177 -0.000000 0.146730
v -0.989177 0.500000 0.146731
v -0.980785 -0.000000 0.195090
v -0.980785 0.500000 0.195090
v -0.970031 -0.000000 0.242980
v -0.970031 0.500000 0.242980
v -0.956940 -0.000000 0.290285
v -0.956940 0.500000 0.290285
v -0.941544 -0.000000 0.336890
v -0.941544 0.500000 0.336890
v -0.923880 -0.000000 0.382683
v -0.923880 0.500000 0.382684
v -0.903989 -0.000000 0.427555
v -0.903989 0.500000 0.427555
v -0.881921 -0.000000 0.471397
v -0.881921 0.500000 0.471397
v -0.857728 -0.000000 0.514103
v -0.857728 0.500000 0.514103
v -0.831469 -0.000000 0.555570
v -0.831469 0.500000 0.555570
v -0.803207 -0.000000 0.595699
v -0.803207 0.500000 0.595699
v -0.773010 -0.000000 0.634393
v -0.773010 0.500000 0.634393
v -0.740951 -0.000000 0.671559
v -0.740951 0.500000 0.671559
v -0.707107 -0.000000 0.707107
v -0.707107 0.500000 0.707107
v -2.875755 -0.000000 -0.000000
v -3.000000 0.124207 -0.000000
v -2.872291 -0.000000 0.141107
v -2.996386 0.124207 0.147203
v -2.996386 0.375793 0.147203
v -2.872291 0.500000 0.141107
v -3.000000 0.375793 0.000000
v -2.875755 0.500000 0.000000
v -2.861907 -0.000000 0.281873
v -2.985554 0.124207 0.294051
v -2.985554 0.375793 0.294051
v -2.861907 0.500000 0.281873
v -2.844630 -0.000000 0.421961
v -2.967530 0.124207 0.440191
v -2.967530 0.375793 0.440191
v -2.844630 0.500000 0.421961
v -2.820499 -0.000000 0.561032
v -2.942356 0.124207 0.585271
v -2.942356 0.375793 0.585271
v -2.820499 0.500000 0.561032
v -2.789573 -0.000000 0.698752
v -2.910094 0.124207 0.728940
v -2.910094 0.375793 0.728941
v -2.789573 0.500000 0.698752
v -2.751926 -0.000000 0.834788
v -2.870821 0.124207 0.870854
v -2.870821 0.375793 0.870854
v -2.751926 0.500000 0.834788
v -2.707650 -0.000000 0.968813
v -2.824632 0.124207 1.010670
v -2.824632 0.375792 1.010670
v -2.707650 0.500000 0.968813
v -2.656851 -0.000000 1.100504
v -2.771638 0.124207 1.148050
v -2.771638 0.375792 1.148050
v -2.656851 0.500000 1.100504
v -2.599652 -0.000000 1.229544
v -2.711968 0.124207 1.282665
v -2.711968 0.375792 1.282665
v -2.599652 0.500000 1.229544
v -2.536190 -0.000000 1.355622
v -2.645764 0.124207 1.414190
v -2.645764 0.375792 1.414190
v -2.536190 0.500000 1.355622
v -2.466618 -0.000000 1.478433
v -2.573186 0.124207 1.542308
v -2.573186 0.375792 1.542309
v -2.466618 0.500000 1.478435
v -2.391104 -0.000001 1.597684
v -2.494409 0.124207 1.666711
v -2.494409 0.375792 1.666711
v -2.391104 0.500000 1.597684
v -2.309829 -0.000001 1.713086
v -2.409623 0.124207 1.787098
v -2.409623 0.375792 1.787098
v -2.309829 0.500000 1.713086
v -2.222989 -0.000001 1.824360
v -2.319031 0.124207 1.903180
v -2.319031 0.375792 1.903180
v -2.222989 0.499999 1.824360
v -2.130794 -0.000001 1.931239
v -2.222853 0.124207 2.014677
v -2.222853 0.375792 2.014677
v -2.130794 0.499999 1.931239
v -2.121320 0.124207 2.121320
v -2.033466 -0.000001 2.033466
v -2.033466 0.499999 2.033466
v -2.121320 0.375792 2.121320
vt 2.000000 0.000000
vt 2.001204 0.049068
vt 0.127709 0.141107
vt 0.124245 0.000000
vt -0.500000 0.098163
vt -0.500000 0.049080
vt 0.000000 0.049080
vt 0.000000 0.098163
vt 0.375793 0.000000
vt 0.375793 0.147247
vt 0.124207 0.147247
vt 0.124207 0.000000
vt 2.004815 0.098017
vt 0.138092 0.281873
vt -0.500000 0.245240
vt -0.500000 0.196157
vt 0.000000 0.196157
vt 0.000000 0.245240
vt 2.010823 0.146730
vt 0.155370 0.421961
vt -0.500000 0.391771
vt -0.500000 0.342688
vt 0.000000 0.342688
vt 0.000000 0.391771
vt 2.019215 0.195090
vt 0.179502 0.561032
vt -0.500000 0.537423
vt -0.500000 0.488341
vt 0.000000 0.488341
vt 0.000000 0.537423
vt 2.029969 0.242980
vt 0.210428 0.698751
vt -0.500000 0.681848
vt -0.500000 0.632766
vt 0.000000 0.632766
vt 0.000000 0.681848
vt 2.043060 0.290285
vt 0.248074 0.834788
vt -0.500000 0.824677
vt -0.500000 0.775595
vt 0.000000 0.775595
vt 0.000000 0.824677
vt 2.058456 0.336890
vt 0.292350 0.968812
vt -0.500000 0.965590
vt -0.500000 0.916507
vt 0.000000 0.916507
vt 0.000000 0.965590
vt 2.076120 0.382683
vt 0.343149 1.100504
vt -0.500000 1.104222
vt -0.500000 1.055140
vt 0.000000 1.055140
vt 0.000000 1.104222
vt 2.096011 0.427555
vt 0.400348 1.229544
vt -0.500000 1.240268
vt -0.500000 1.191185
vt 0.000000 1.191185
vt 0.000000 1.240268
vt 2.118079 0.471397
vt 0.463810 1.355621
vt -0.500000 1.373375
vt -0.500000 1.324293
vt 0.000000 1.324293
vt 0.000000 1.373375
vt 2.142272 0.514103
vt 0.533382 1.478433
vt -0.500000 1.503240
vt -0.500000 1.454157
vt 0.000000 1.454157
vt 0.000000 1.503240
vt 2.168530 0.555570
vt 0.608897 1.597684
vt -0.500000 1.629533
vt -0.500000 1.580450
vt 0.000000 1.580450
vt 0.000000 1.629533
vt 2.196793 0.595699
vt 0.690172 1.713085
vt -0.500000 1.751967
vt -0.500000 1.702885
vt 0.000000 1.702885
vt 0.000000 1.751967
vt 2.226990 0.634393
vt 0.777011 1.824360
vt -0.500000 1.870232
vt -0.500000 1.821150
vt 0.000000 1.821150
vt 0.000000 1.870232
vt 2.259049 0.671559
vt 0.869206 1.931239
vt -0.500000 1.984061
vt -0.500000 1.934979
vt 0.000000 1.934979
vt 0.000000 1.984061
vt 2.292893 0.707107
vt 0.966534 2.033466
vt -0.500000 2.093161
vt -0.500000 2.044079
vt 0.000000 2.044079
vt 0.000000 2.093161
vt 0.375793 0.294317
vt 0.124207 0.294317
vt -2.004815 0.098017
vt -2.001204 0.049068
vt -0.127709 0.141107
vt -0.138092 0.281873
vt -2.000000 0.000000
vt -0.124245 0.000000
vt 0.375793 0.293608
vt 0.375793 0.440856
vt 0.124207 0.440856
vt 0.124207 0.293608
vt -2.010823 0.146730
vt -0.155370 0.421961
vt 0.375793 0.439262
vt 0.375793 0.586509
vt 0.124207 0.586509
vt 0.124207 0.439262
vt -2.019215 0.195090
vt -0.179502 0.561032
vt 0.375793 0.583680
vt 0.375793 0.730928
vt 0.124207 0.730927
vt 0.124207 0.583680
vt -2.029969 0.242980
vt -0.210428 0.698752
vt 0.375793 0.726515
vt 0.375793 0.873762
vt 0.124207 0.873762
vt 0.124207 0.726515
vt -2.043060 0.290285
vt -0.248074 0.834788
vt 0.375793 0.867421
vt 0.375793 1.014669
vt 0.124207 1.014669
vt 0.124207 0.867421
vt -2.058456 0.336890
vt -0.292350 0.968812
vt 0.375793 1.006061
vt 0.375793 1.153309
vt 0.124207 1.153309
vt 0.124207 1.006061
vt -2.076120 0.382683
vt -0.343149 1.100504
vt 0.375793 1.142101
vt 0.375793 1.289348
vt 0.124207 1.289348
vt 0.124207 1.142101
vt -2.096011 0.427555
vt -0.400348 1.229544
vt 0.375793 1.275210
vt 0.375793 1.422458
vt 0.124207 1.422458
vt 0.124207 1.275210
vt -2.118079 0.471397
vt -0.463810 1.355621
vt 0.375793 1.405071
vt 0.375793 1.552319
vt 0.124207 1.552319
vt 0.124207 1.405071
vt -2.142272 0.514103
vt -0.533382 1.478433
vt 0.375793 1.531369
vt 0.375793 1.678616
vt 0.124207 1.678616
vt 0.124207 1.531369
vt -2.168530 0.555570
vt -0.608897 1.597684
vt 0.375793 1.653801
vt 0.375793 1.801048
vt 0.124207 1.801048
vt 0.124207 1.653801
vt -2.196793 0.595699
vt -0.690172 1.713086
vt 0.375793 1.772071
vt 0.375793 1.919319
vt 0.124207 1.919319
vt 0.124207 1.772071
vt -2.226990 0.634393
vt -0.777011 1.824360
vt 0.375793 1.885895
vt 0.375793 2.033143
vt 0.124207 2.033143
vt 0.124207 1.885895
vt -2.259049 0.671559
vt -0.869206 1.931239
vt 0.375793 1.994996
vt 0.375793 2.142244
vt 0.124207 2.142244
vt 0.124207 1.994996
vt -2.292893 0.707107
vt -0.966534 2.033466
vt -1.121320 0.000000
vt 0.754435 0.000000
vt 0.878680 0.124207
vt 0.878680 0.375793
vt 0.754435 0.500000
vt -1.121320 0.500000
vt 0.003614 0.147203
vt 0.000000 0.000000
vt 0.000000 0.000000
vt -0.003614 0.147203
vt 0.014446 0.294051
vt 0.000000 0.291272
vt 0.000000 0.150293
vt 0.032470 0.440191
vt 0.000000 0.437806
vt 0.000000 0.296657
vt 0.057644 0.585271
vt 0.000000 0.583460
vt 0.000000 0.442311
vt 0.089906 0.728940
vt 0.000000 0.727878
vt 0.000000 0.586729
vt 0.129179 0.870854
vt 0.000000 0.870713
vt 0.000000 0.729564
vt 0.175368 1.010669
vt 0.000000 1.011620
vt 0.000000 0.870471
vt 0.228362 1.148050
vt 0.000000 1.150260
vt 0.000000 1.009111
vt 0.288032 1.282665
vt 0.000000 1.286298
vt 0.000000 1.145150
vt 0.354236 1.414190
vt 0.000000 1.419409
vt 0.000000 1.278259
vt 0.426814 1.542308
vt 0.000000 1.549270
vt 0.000000 1.408120
vt 0.505591 1.666711
vt 0.000000 1.675567
vt 0.000000 1.534418
vt 0.590377 1.787098
vt 0.000000 1.797999
vt 0.000000 1.656850
vt 0.680969 1.903180
vt 0.000000 1.916270
vt 0.000000 1.775120
vt 0.777147 2.014677
vt 0.000000 2.030094
vt 0.000000 1.888944
vt 0.878680 2.121320
vt 0.000000 2.139195
vt 0.000000 1.998045
vt 0.000000 0.124207
vt 0.124245 0.000000
vt 2.000000 0.000000
vt 2.000000 0.500000
vt 0.124245 0.500000
vt 0.000000 0.375793
vn -0.0000 -1.0000 -0.0000
vn 0.9988 0.0000 -0.0491
vn 0.9997 0.0000 -0.0245
vn -0.9997 0.0000 0.0245
vn -0.9988 0.0000 0.0491
vn 0.9952 0.0000 -0.0980
vn 0.9892 0.0000 -0.1467
vn 0.9808 0.0000 -0.1951
vn 0.9700 0.0000 -0.2430
vn 0.9569 0.0000 -0.2903
vn 0.9415 0.0000 -0.3369
vn 0.9239 0.0000 -0.3827
vn 0.9040 0.0000 -0.4276
vn 0.8819 0.0000 -0.4714
vn 0.8577 0.0000 -0.5141
vn 0.8315 0.0000 -0.5556
vn 0.8032 0.0000 -0.5957
vn 0.7730 0.0000 -0.6344
vn 0.7410 0.0000 -0.6716
vn 0.7242 0.0000 -0.6895
vn -0.9952 0.0000 0.0980
vn 0.0000 1.0000 0.0000
vn -0.9892 0.0000 0.1467
vn -0.9808 -0.0000 0.1951
vn -0.9700 -0.0000 0.2430
vn -0.9569 0.0000 0.2903
vn -0.9415 -0.0000 0.3369
vn -0.9239 0.0000 0.3827
vn -0.9040 0.0000 0.4276
vn -0.8819 -0.0000 0.4714
vn -0.8577 -0.0000 0.5141
vn -0.8315 -0.0000 0.5556
vn -0.8032 -0.0000 0.5957
vn -0.7730 0.0000 0.6344
vn -0.7410 0.0000 0.6716
vn -0.7242 0.0000 0.6895
vn 0.7071 0.0000 0.7071
vn -0.7069 -0.7071 0.0174
vn -0.7061 -0.7072 0.0347
vn -0.7061 0.7072 0.0347
vn -0.7069 0.7071 0.0174
vn -0.7036 -0.7072 0.0693
vn -0.7036 0.7072 0.0693
vn -0.6993 -0.7072 0.1037
vn -0.6993 0.7072 0.1037
vn -0.6934 -0.7072 0.1379
vn -0.6934 0.7072 0.1379
vn -0.6858 -0.7072 0.1718
vn -0.6858 0.7072 0.1718
vn -0.6766 -0.7072 0.2052
vn -0.6766 0.7072 0.2052
vn -0.6657 -0.7072 0.2382
vn -0.6657 0.7072 0.2382
vn -0.6532 -0.7072 0.2706
vn -0.6532 0.7072 0.2706
vn -0.6391 -0.7072 0.3023
vn -0.6391 0.7072 0.3023
vn -0.6235 -0.7072 0.3333
vn -0.6235 0.7072 0.3333
vn -0.6064 -0.7072 0.3635
vn -0.6064 0.7072 0.3635
vn -0.5878 -0.7072 0.3928
vn -0.5878 0.7072 0.3928
vn -0.5679 -0.7072 0.4212
vn -0.5679 0.7072 0.4212
vn -0.5465 -0.7072 0.4485
vn -0.5465 0.7072 0.4485
vn -0.5239 -0.7072 0.4748
vn -0.5239 0.7072 0.4748
vn -0.5121 -0.7071 0.4876
vn -0.5121 0.7071 0.4876
vn 0.0000 0.0000 -1.0000
usemtl Platform.001
s 1
f 2/1/1 1/2/1 37/3/1 35/4/1
f 1/5/2 2/6/3 3/7/3 4/8/2
f 36/9/4 38/10/5 39/11/5 41/12/4
f 1/2/1 5/13/1 43/14/1 37/3/1
f 5/15/6 1/16/2 4/17/2 6/18/6
f 5/13/1 7/19/1 47/20/1 43/14/1
f 7/21/7 5/22/6 6/23/6 8/24/7
f 7/19/1 9/25/1 51/26/1 47/20/1
f 9/27/8 7/28/7 8/29/7 10/30/8
f 9/25/1 11/31/1 55/32/1 51/26/1
f 11/33/9 9/34/8 10/35/8 12/36/9
f 11/31/1 13/37/1 59/38/1 55/32/1
f 13/39/10 11/40/9 12/41/9 14/42/10
f 13/37/1 15/43/1 63/44/1 59/38/1
f 15/45/11 13/46/10 14/47/10 16/48/11
f 15/43/1 17/49/1 67/50/1 63/44/1
f 17/51/12 15/52/11 16/53/11 18/54/12
f 17/49/1 19/55/1 71/56/1 67/50/1
f 19/57/13 17/58/12 18/59/12 20/60/13
f 19/55/1 21/61/1 75/62/1 71/56/1
f 21/63/14 19/64/13 20/65/13 22/66/14
f 21/61/1 23/67/1 79/68/1 75/62/1
f 23/69/15 21/70/14 22/71/14 24/72/15
f 23/67/1 25/73/1 83/74/1 79/68/1
f 25/75/16 23/76/15 24/77/15 26/78/16
f 25/73/1 27/79/1 87/80/1 83/74/1
f 27/81/17 25/82/16 26/83/16 28/84/17
f 27/79/1 29/85/1 91/86/1 87/80/1
f 29/87/18 27/88/17 28/89/17 30/90/18
f 29/85/1 31/91/1 95/92/1 91/86/1
f 31/93/19 29/94/18 30/95/18 32/96/19
f 31/91/1 33/97/1 100/98/1 95/92/1
f 33/99/20 31/100/19 32/101/19 34/102/20
f 38/10/5 44/103/21 45/104/21 39/11/5
f 6/105/22 4/106/22 40/107/22 46/108/22
f 4/106/22 3/109/22 42/110/22 40/107/22
f 44/111/21 48/112/23 49/113/23 45/114/21
f 8/115/22 6/105/22 46/108/22 50/116/22
f 48/117/23 52/118/24 53/119/24 49/120/23
f 10/121/22 8/115/22 50/116/22 54/122/22
f 52/123/24 56/124/25 57/125/25 53/126/24
f 12/127/22 10/121/22 54/122/22 58/128/22
f 56/129/25 60/130/26 61/131/26 57/132/25
f 14/133/22 12/127/22 58/128/22 62/134/22
f 60/135/26 64/136/27 65/137/27 61/138/26
f 16/139/22 14/133/22 62/134/22 66/140/22
f 64/141/27 68/142/28 69/143/28 65/144/27
f 18/145/22 16/139/22 66/140/22 70/146/22
f 68/147/28 72/148/29 73/149/29 69/150/28
f 20/151/22 18/145/22 70/146/22 74/152/22
f 72/153/29 76/154/30 77/155/30 73/156/29
f 22/157/22 20/151/22 74/152/22 78/158/22
f 76/159/30 80/160/31 81/161/31 77/162/30
f 24/163/22 22/157/22 78/158/22 82/164/22
f 80/165/31 84/166/32 85/167/32 81/168/31
f 26/169/22 24/163/22 82/164/22 86/170/22
f 84/171/32 88/172/33 89/173/33 85/174/32
f 28/175/22 26/169/22 86/170/22 90/176/22
f 88/177/33 92/178/34 93/179/34 89/180/33
f 30/181/22 28/175/22 90/176/22 94/182/22
f 92/183/34 96/184/35 97/185/35 93/186/34
f 32/187/22 30/181/22 94/182/22 98/188/22
f 96/189/35 99/190/36 102/191/36 97/192/35
f 34/193/22 32/187/22 98/188/22 101/194/22
f 34/195/37 101/196/37 102/197/37 99/198/37 100/199/37 33/200/37
f 35/4/38 37/3/39 38/201/39 36/202/38
f 40/107/40 42/110/41 41/203/41 39/204/40
f 37/3/39 43/14/42 44/205/42 38/201/39
f 39/11/40 45/104/43 46/206/43 40/207/40
f 43/14/42 47/20/44 48/208/44 44/205/42
f 45/114/43 49/113/45 50/209/45 46/210/43
f 47/20/44 51/26/46 52/211/46 48/208/44
f 49/120/45 53/119/47 54/212/47 50/213/45
f 51/26/46 55/32/48 56/214/48 52/211/46
f 53/126/47 57/125/49 58/215/49 54/216/47
f 55/32/48 59/38/50 60/217/50 56/214/48
f 57/132/49 61/131/51 62/218/51 58/219/49
f 59/38/50 63/44/52 64/220/52 60/217/50
f 61/138/51 65/137/53 66/221/53 62/222/51
f 63/44/52 67/50/54 68/223/54 64/220/52
f 65/144/53 69/143/55 70/224/55 66/225/53
f 67/50/54 71/56/56 72/226/56 68/223/54
f 69/150/55 73/149/57 74/227/57 70/228/55
f 71/56/56 75/62/58 76/229/58 72/226/56
f 73/156/57 77/155/59 78/230/59 74/231/57
f 75/62/58 79/68/60 80/232/60 76/229/58
f 77/162/59 81/161/61 82/233/61 78/234/59
f 79/68/60 83/74/62 84/235/62 80/232/60
f 81/168/61 85/167/63 86/236/63 82/237/61
f 83/74/62 87/80/64 88/238/64 84/235/62
f 85/174/63 89/173/65 90/239/65 86/240/63
f 87/80/64 91/86/66 92/241/66 88/238/64
f 89/180/65 93/179/67 94/242/67 90/243/65
f 91/86/66 95/92/68 96/244/68 92/241/66
f 93/186/67 97/185/69 98/245/69 94/246/67
f 95/92/68 100/98/70 99/247/70 96/244/68
f 97/192/69 102/191/71 101/248/71 98/249/69
f 41/250/72 42/251/72 3/252/72 2/253/72 35/254/72 36/255/72
