# Blender v2.80 (sub 75) OBJ File: ''
# www.blender.org
mtllib Arch.mtl
o Arch.002
v -1.148796 0.100000 0.099068
v -1.150000 0.100000 0.050000
v -1.150000 0.600000 0.050000
v -1.148796 0.600000 0.099068
v -1.145185 0.100000 0.148017
v -1.145185 0.600000 0.148017
v -1.139177 0.100000 0.196730
v -1.139177 0.600000 0.196731
v -1.130785 0.100000 0.245090
v -1.130785 0.600000 0.245090
v -1.120031 0.100000 0.292980
v -1.120031 0.600000 0.292980
v -1.106941 0.100000 0.340285
v -1.106941 0.600000 0.340285
v -1.091544 0.100000 0.386890
v -1.091544 0.600000 0.386890
v -1.073880 0.100000 0.432683
v -1.073880 0.600000 0.432684
v -1.053989 0.100000 0.477555
v -1.053989 0.600000 0.477555
v -1.031921 0.100000 0.521397
v -1.031921 0.600000 0.521397
v -1.007729 0.100000 0.564103
v -1.007729 0.600000 0.564103
v -0.981470 0.100000 0.605570
v -0.981470 0.600000 0.605570
v -0.953207 0.100000 0.645699
v -0.953207 0.600000 0.645700
v -0.923011 0.100000 0.684393
v -0.923011 0.600000 0.684393
v -0.890951 0.100000 0.721559
v -0.890951 0.600000 0.721559
v -0.857107 0.100000 0.757107
v -0.857107 0.600000 0.757107
v -0.821559 0.100000 0.790951
v -0.821559 0.600000 0.790951
v -0.784393 0.100000 0.823010
v -0.784393 0.600000 0.823011
v -0.745699 0.100000 0.853208
v -0.745699 0.600000 0.853208
v -0.705570 0.100000 0.881470
v -0.705570 0.600000 0.881470
v -0.664103 0.100000 0.907729
v -0.664103 0.600000 0.907729
v -0.621397 0.100000 0.931921
v -0.621397 0.600000 0.931922
v -0.577555 0.100000 0.953989
v -0.577555 0.600000 0.953990
v -0.532684 0.100000 0.973880
v -0.532684 0.600000 0.973880
v -3.025831 0.100000 0.050000
v -3.150000 0.224132 0.050000
v -3.022366 0.100000 0.191110
v -3.146386 0.224132 0.197203
v -3.146386 0.475868 0.197203
v -3.022366 0.600000 0.191110
v -3.150000 0.475868 0.050000
v -3.025831 0.600000 0.050000
v -3.011982 0.100000 0.331881
v -3.135554 0.224132 0.344051
v -3.135554 0.475868 0.344052
v -3.011982 0.600000 0.331881
v -2.994704 0.100000 0.471972
v -3.117530 0.224132 0.490191
v -3.117530 0.475868 0.490191
v -2.994704 0.600000 0.471972
v -2.970572 0.100000 0.611047
v -3.092356 0.224132 0.635271
v -3.092356 0.475868 0.635271
v -2.970572 0.600000 0.611047
v -2.939646 0.100000 0.748770
v -3.060094 0.224132 0.778941
v -3.060094 0.475868 0.778941
v -2.939646 0.600000 0.748770
v -2.901998 0.100000 0.884810
v -3.020821 0.224132 0.920854
v -3.020821 0.475868 0.920854
v -2.901998 0.600000 0.884810
v -2.857721 0.100000 1.018839
v -2.974632 0.224132 1.060670
v -2.974632 0.475868 1.060670
v -2.857721 0.600000 1.018839
v -2.806921 0.100000 1.150532
v -2.921638 0.224132 1.198050
v -2.921638 0.475868 1.198050
v -2.806921 0.600000 1.150533
v -2.749720 0.100000 1.279576
v -2.861968 0.224132 1.332665
v -2.861968 0.475868 1.332665
v -2.749720 0.600000 1.279576
v -2.686256 0.100000 1.405657
v -2.795764 0.224132 1.464190
v -2.795764 0.475868 1.464190
v -2.686256 0.600000 1.405657
v -2.616682 0.100000 1.528472
v -2.723186 0.224132 1.592308
v -2.723186 0.475867 1.592309
v -2.616682 0.600000 1.528473
v -2.541166 0.100000 1.647726
v -2.644409 0.224132 1.716711
v -2.644409 0.475867 1.716711
v -2.541166 0.599999 1.647726
v -2.459889 0.099999 1.763130
v -2.559623 0.224131 1.837098
v -2.559623 0.475867 1.837098
v -2.459889 0.599999 1.763131
v -2.373048 0.099999 1.874408
v -2.469032 0.224131 1.953180
v -2.469032 0.475867 1.953180
v -2.373048 0.599999 1.874408
v -2.280850 0.099999 1.981290
v -2.372854 0.224131 2.064677
v -2.372854 0.475867 2.064677
v -2.280850 0.599999 1.981290
v -2.183519 0.099999 2.083519
v -2.271320 0.224131 2.171320
v -2.271320 0.475867 2.171320
v -2.183519 0.599999 2.083519
v -2.081290 0.099999 2.180851
v -2.164677 0.224131 2.272854
v -2.164677 0.475867 2.272854
v -2.081290 0.599999 2.180851
v -1.974408 0.099999 2.273047
v -2.053180 0.224131 2.369031
v -2.053180 0.475867 2.369031
v -1.974408 0.599999 2.273047
v -1.863130 0.099999 2.359889
v -1.937098 0.224131 2.459623
v -1.937098 0.475867 2.459623
v -1.863130 0.599999 2.359889
v -1.747726 0.099999 2.441166
v -1.816711 0.224131 2.544409
v -1.816711 0.475867 2.544409
v -1.747726 0.599999 2.441166
v -1.628473 0.099999 2.516682
v -1.692309 0.224131 2.623186
v -1.692309 0.475867 2.623186
v -1.628473 0.599999 2.516682
v -1.505657 0.099999 2.586256
v -1.564190 0.224131 2.695764
v -1.564190 0.475867 2.695764
v -1.505657 0.599999 2.586257
v -1.379576 0.099999 2.649720
v -1.432665 0.224131 2.761968
v -1.432665 0.475867 2.761968
v -1.379576 0.599999 2.649720
v -1.298050 0.224131 2.821639
v -1.250533 0.099999 2.706922
v -1.250533 0.599999 2.706922
v -1.298050 0.475867 2.821639
vt 2.000000 0.000000
vt 2.001204 0.049068
vt 0.127633 0.141110
vt 0.124170 0.000000
vt -0.500000 0.098163
vt -0.500000 0.049080
vt 0.000000 0.049080
vt 0.000000 0.098163
vt 0.375868 0.000000
vt 0.375868 0.147247
vt 0.124132 0.147247
vt 0.124132 0.000000
vt 2.004815 0.098017
vt 0.138017 0.281881
vt -0.500000 0.245240
vt -0.500000 0.196157
vt 0.000000 0.196157
vt 0.000000 0.245240
vt 2.010823 0.146730
vt 0.155296 0.421972
vt -0.500000 0.391771
vt -0.500000 0.342688
vt 0.000000 0.342688
vt 0.000000 0.391771
vt 2.019215 0.195090
vt 0.179428 0.561047
vt -0.500000 0.537423
vt -0.500000 0.488341
vt 0.000000 0.488341
vt 0.000000 0.537423
vt 2.029969 0.242980
vt 0.210355 0.698770
vt -0.500000 0.681848
vt -0.500000 0.632766
vt 0.000000 0.632766
vt 0.000000 0.681848
vt 2.043060 0.290285
vt 0.248002 0.834810
vt -0.500000 0.824677
vt -0.500000 0.775595
vt 0.000000 0.775595
vt 0.000000 0.824677
vt 2.058456 0.336890
vt 0.292279 0.968838
vt -0.500000 0.965590
vt -0.500000 0.916507
vt 0.000000 0.916507
vt 0.000000 0.965590
vt 2.076120 0.382683
vt 0.343079 1.100532
vt -0.500000 1.104222
vt -0.500000 1.055140
vt 0.000000 1.055140
vt 0.000000 1.104222
vt 2.096011 0.427555
vt 0.400280 1.229576
vt -0.500000 1.240268
vt -0.500000 1.191185
vt 0.000000 1.191185
vt 0.000000 1.240268
vt 2.118079 0.471397
vt 0.463744 1.355657
vt -0.500000 1.373375
vt -0.500000 1.324293
vt 0.000000 1.324293
vt 0.000000 1.373375
vt 2.142272 0.514103
vt 0.533318 1.478472
vt -0.500000 1.503240
vt -0.500000 1.454157
vt 0.000000 1.454157
vt 0.000000 1.503240
vt 2.168530 0.555570
vt 0.608834 1.597726
vt -0.500000 1.629533
vt -0.500000 1.580450
vt 0.000000 1.580450
vt 0.000000 1.629533
vt 2.196793 0.595699
vt 0.690111 1.713130
vt -0.500000 1.751967
vt -0.500000 1.702885
vt 0.000000 1.702885
vt 0.000000 1.751967
vt 2.226990 0.634393
vt 0.776953 1.824408
vt -0.500000 1.870232
vt -0.500000 1.821150
vt 0.000000 1.821150
vt 0.000000 1.870232
vt 2.259049 0.671559
vt 0.869150 1.931290
vt -0.500000 1.984061
vt -0.500000 1.934979
vt 0.000000 1.934979
vt 0.000000 1.984061
vt 2.292893 0.707107
vt 0.966481 2.033519
vt -0.500000 2.093161
vt -0.500000 2.044079
vt 0.000000 2.044079
vt 0.000000 2.093161
vt 2.328441 0.740951
vt 1.068710 2.130849
vt 2.197285 0.500000
vt 2.148202 0.500000
vt 2.148202 0.000000
vt 2.197285 0.000000
vt 2.365607 0.773010
vt 1.175592 2.223047
vt 2.296168 0.500000
vt 2.247085 0.500000
vt 2.247085 0.000000
vt 2.296168 0.000000
vt 2.404301 0.803208
vt 1.286870 2.309889
vt 2.389580 0.500000
vt 2.340497 0.500000
vt 2.340497 0.000000
vt 2.389580 0.000000
vt 2.444430 0.831470
vt 1.402274 2.391166
vt 2.477297 0.500000
vt 2.428214 0.500000
vt 2.428214 0.000000
vt 2.477297 0.000000
vt 2.485897 0.857729
vt 1.521528 2.466682
vt 2.559100 0.500000
vt 2.510017 0.500000
vt 2.510017 0.000000
vt 2.559100 0.000000
vt 2.528603 0.881921
vt 1.644343 2.536256
vt 2.634804 0.500000
vt 2.585721 0.500000
vt 2.585721 0.000000
vt 2.634804 0.000000
vt 2.572445 0.903989
vt 1.770424 2.599720
vt 2.704214 0.500000
vt 2.655131 0.500000
vt 2.655131 0.000000
vt 2.704214 0.000000
vt 2.617316 0.923880
vt 1.899468 2.656920
vt 2.767170 0.500000
vt 2.718088 0.500000
vt 2.718088 0.000000
vt 2.767170 0.000000
vt 0.375868 0.294317
vt 0.124132 0.294317
vt -2.004815 0.098017
vt -2.001204 0.049068
vt -0.127633 0.141110
vt -0.138017 0.281881
vt -2.000000 0.000000
vt -0.124169 0.000000
vt 0.375868 0.293608
vt 0.375868 0.440856
vt 0.124132 0.440856
vt 0.124132 0.293608
vt -2.010823 0.146730
vt -0.155296 0.421972
vt 0.375868 0.439262
vt 0.375868 0.586509
vt 0.124132 0.586509
vt 0.124132 0.439262
vt -2.019215 0.195090
vt -0.179428 0.561047
vt 0.375868 0.583680
vt 0.375868 0.730928
vt 0.124132 0.730928
vt 0.124132 0.583680
vt -2.029969 0.242980
vt -0.210355 0.698770
vt 0.375868 0.726515
vt 0.375868 0.873762
vt 0.124132 0.873762
vt 0.124132 0.726515
vt -2.043060 0.290285
vt -0.248002 0.834809
vt 0.375868 0.867421
vt 0.375868 1.014669
vt 0.124132 1.014669
vt 0.124132 0.867421
vt -2.058456 0.336890
vt -0.292279 0.968838
vt 0.375868 1.006061
vt 0.375868 1.153309
vt 0.124132 1.153309
vt 0.124132 1.006061
vt -2.076120 0.382683
vt -0.343079 1.100532
vt 0.375868 1.142101
vt 0.375868 1.289348
vt 0.124132 1.289348
vt 0.124132 1.142101
vt -2.096011 0.427555
vt -0.400280 1.229576
vt 0.375868 1.275210
vt 0.375868 1.422458
vt 0.124132 1.422458
vt 0.124132 1.275210
vt -2.118079 0.471397
vt -0.463744 1.355657
vt 0.375868 1.405071
vt 0.375868 1.552319
vt 0.124132 1.552319
vt 0.124132 1.405071
vt -2.142272 0.514103
vt -0.533318 1.478472
vt 0.375868 1.531369
vt 0.375868 1.678616
vt 0.124132 1.678616
vt 0.124132 1.531369
vt -2.168530 0.555570
vt -0.608834 1.597726
vt 0.375868 1.653801
vt 0.375868 1.801048
vt 0.124132 1.801048
vt 0.124132 1.653801
vt -2.196793 0.595699
vt -0.690111 1.713130
vt 0.375868 1.772071
vt 0.375868 1.919319
vt 0.124132 1.919319
vt 0.124132 1.772071
vt -2.226990 0.634393
vt -0.776953 1.824408
vt 0.375868 1.885895
vt 0.375868 2.033143
vt 0.124132 2.033143
vt 0.124132 1.885895
vt -2.259049 0.671559
vt -0.869150 1.931290
vt 0.375868 1.994996
vt 0.375868 2.142244
vt 0.124132 2.142244
vt 0.124132 1.994996
vt -2.292893 0.707107
vt -0.966481 2.033519
vt -2.099119 0.375868
vt -2.246367 0.375868
vt -2.246367 0.124132
vt -2.099119 0.124132
vt -2.328441 0.740951
vt -1.068710 2.130849
vt -2.198001 0.375868
vt -2.345249 0.375868
vt -2.345249 0.124132
vt -2.198001 0.124132
vt -2.365607 0.773010
vt -1.175592 2.223047
vt -2.291417 0.375868
vt -2.438664 0.375868
vt -2.438664 0.124132
vt -2.291417 0.124132
vt -2.404301 0.803208
vt -1.286870 2.309889
vt -2.379131 0.375868
vt -2.526378 0.375868
vt -2.526378 0.124132
vt -2.379131 0.124132
vt -2.444430 0.831470
vt -1.402274 2.391166
vt -2.460939 0.375868
vt -2.608186 0.375868
vt -2.608186 0.124132
vt -2.460939 0.124132
vt -2.485897 0.857729
vt -1.521528 2.466682
vt -2.536634 0.375868
vt -2.683882 0.375868
vt -2.683882 0.124132
vt -2.536634 0.124132
vt -2.528603 0.881921
vt -1.644343 2.536257
vt -2.606051 0.375868
vt -2.753299 0.375868
vt -2.753299 0.124132
vt -2.606051 0.124132
vt -2.572445 0.903989
vt -1.770424 2.599720
vt -2.669002 0.375868
vt -2.816250 0.375868
vt -2.816250 0.124132
vt -2.669002 0.124132
vt -2.617316 0.923880
vt -1.899467 2.656920
vt 0.000000 -0.148050
vt 0.000000 1.727780
vt -0.124132 1.851949
vt -0.375868 1.851949
vt -0.500000 1.727780
vt -0.500000 -0.148050
vt 0.003614 0.147203
vt 0.000000 0.000000
vt 0.000000 0.000000
vt -0.003614 0.147203
vt 0.014446 0.294051
vt 0.000000 0.291274
vt 0.000000 0.150291
vt 0.032470 0.440191
vt 0.000000 0.437808
vt 0.000000 0.296655
vt 0.057644 0.585271
vt 0.000000 0.583462
vt 0.000000 0.442310
vt 0.089906 0.728940
vt 0.000000 0.727880
vt 0.000000 0.586727
vt 0.129179 0.870854
vt 0.000000 0.870715
vt 0.000000 0.729562
vt 0.175368 1.010669
vt 0.000000 1.011622
vt 0.000000 0.870469
vt 0.228362 1.148050
vt 0.000000 1.150262
vt 0.000000 1.009109
vt 0.288032 1.282665
vt 0.000000 1.286300
vt 0.000000 1.145148
vt 0.354236 1.414190
vt 0.000000 1.419411
vt 0.000000 1.278257
vt 0.426814 1.542308
vt 0.000000 1.549271
vt 0.000000 1.408118
vt 0.505591 1.666711
vt 0.000000 1.675569
vt 0.000000 1.534417
vt 0.590377 1.787098
vt 0.000000 1.798001
vt 0.000000 1.656848
vt 0.680969 1.903180
vt 0.000000 1.916271
vt 0.000000 1.775118
vt 0.777147 2.014677
vt 0.000000 2.030096
vt 0.000000 1.888942
vt 0.878680 2.121320
vt 0.000000 2.139198
vt 0.000000 1.998044
vt 0.985323 2.222853
vt -2.243319 0.000000
vt -2.102165 0.000000
vt 1.096820 2.319031
vt -2.342202 0.000000
vt -2.201049 0.000000
vt 1.212902 2.409623
vt -2.435616 0.000000
vt -2.294464 0.000000
vt 1.333289 2.494409
vt -2.523331 0.000000
vt -2.382179 0.000000
vt 1.457692 2.573186
vt -2.605138 0.000000
vt -2.463986 0.000000
vt 1.585810 2.645764
vt -2.680835 0.000000
vt -2.539681 0.000000
vt 1.717335 2.711968
vt -2.750252 0.000000
vt -2.609098 0.000000
vt 1.851950 2.771638
vt -2.813203 0.000000
vt -2.672049 0.000000
vt 0.000000 0.124132
vt 0.124170 0.000000
vt 2.000000 0.000000
vt 2.000000 0.500000
vt 0.124169 0.500000
vt 0.000000 0.375868
vn 0.0000 -1.0000 -0.0000
vn 0.9988 0.0000 -0.0491
vn 0.9997 0.0000 -0.0245
vn -0.9997 0.0000 0.0245
vn -0.9988 0.0000 0.0491
vn 0.9952 0.0000 -0.0980
vn 0.9892 0.0000 -0.1467
vn 0.9808 0.0000 -0.1951
vn 0.9700 0.0000 -0.2430
vn 0.9569 0.0000 -0.2903
vn 0.9415 0.0000 -0.3369
vn 0.9239 0.0000 -0.3827
vn 0.9040 0.0000 -0.4276
vn 0.8819 0.0000 -0.4714
vn 0.8577 0.0000 -0.5141
vn 0.8315 0.0000 -0.5556
vn 0.8032 0.0000 -0.5957
vn 0.7730 0.0000 -0.6344
vn 0.7410 0.0000 -0.6716
vn 0.7071 0.0000 -0.7071
vn 0.6716 0.0000 -0.7410
vn 0.6344 0.0000 -0.7730
vn 0.5957 0.0000 -0.8032
vn 0.5556 0.0000 -0.8315
vn 0.5141 0.0000 -0.8577
vn 0.4714 0.0000 -0.8819
vn 0.4276 0.0000 -0.9040
vn 0.4052 0.0000 -0.9142
vn -0.9952 -0.0000 0.0980
vn -0.0000 1.0000 0.0000
vn -0.9892 -0.0000 0.1467
vn -0.9808 0.0000 0.1951
vn -0.9700 0.0000 0.2430
vn -0.9569 0.0000 0.2903
vn -0.9415 0.0000 0.3369
vn -0.9239 -0.0000 0.3827
vn -0.9040 -0.0000 0.4276
vn -0.8819 -0.0000 0.4714
vn -0.8577 -0.0000 0.5141
vn -0.8315 -0.0000 0.5556
vn -0.8032 -0.0000 0.5957
vn -0.7730 -0.0000 0.6344
vn -0.7409 -0.0000 0.6716
vn -0.7071 0.0000 0.7071
vn -0.6716 0.0000 0.7410
vn -0.6344 0.0000 0.7730
vn -0.5957 0.0000 0.8032
vn -0.5556 0.0000 0.8315
vn -0.5141 0.0000 0.8577
vn -0.4714 0.0000 0.8819
vn -0.4276 0.0000 0.9040
vn -0.4052 0.0000 0.9142
vn 0.9239 0.0000 0.3827
vn -0.7069 -0.7071 0.0174
vn -0.7061 -0.7072 0.0347
vn -0.7061 0.7072 0.0347
vn -0.7069 0.7071 0.0174
vn -0.7036 -0.7072 0.0693
vn -0.7036 0.7072 0.0693
vn -0.6993 -0.7072 0.1037
vn -0.6993 0.7072 0.1037
vn -0.6934 -0.7072 0.1379
vn -0.6934 0.7072 0.1379
vn -0.6858 -0.7072 0.1718
vn -0.6858 0.7072 0.1718
vn -0.6766 -0.7072 0.2052
vn -0.6766 0.7072 0.2052
vn -0.6657 -0.7072 0.2382
vn -0.6657 0.7072 0.2382
vn -0.6532 -0.7072 0.2706
vn -0.6532 0.7072 0.2706
vn -0.6391 -0.7072 0.3023
vn -0.6391 0.7072 0.3023
vn -0.6235 -0.7072 0.3333
vn -0.6235 0.7072 0.3333
vn -0.6064 -0.7072 0.3635
vn -0.6064 0.7072 0.3635
vn -0.5878 -0.7072 0.3928
vn -0.5878 0.7072 0.3928
vn -0.5679 -0.7072 0.4212
vn -0.5679 0.7072 0.4212
vn -0.5465 -0.7072 0.4485
vn -0.5465 0.7072 0.4485
vn -0.5239 -0.7072 0.4748
vn -0.5239 0.7072 0.4748
vn -0.4999 -0.7072 0.4999
vn -0.4999 0.7072 0.4999
vn -0.4748 -0.7072 0.5239
vn -0.4748 0.7072 0.5239
vn -0.4485 -0.7072 0.5465
vn -0.4485 0.7072 0.5465
vn -0.4212 -0.7072 0.5679
vn -0.4212 0.7072 0.5679
vn -0.3928 -0.7072 0.5878
vn -0.3928 0.7072 0.5878
vn -0.3635 -0.7072 0.6064
vn -0.3635 0.7072 0.6064
vn -0.3333 -0.7072 0.6235
vn -0.3333 0.7072 0.6235
vn -0.3023 -0.7072 0.6391
vn -0.3023 0.7072 0.6391
vn -0.2866 -0.7071 0.6464
vn -0.2866 0.7071 0.6464
vn 0.0000 0.0000 -1.0000
usemtl KillerObstacle
s 1
f 2/1/1 1/2/1 53/3/1 51/4/1
f 1/5/2 2/6/3 3/7/3 4/8/2
f 52/9/4 54/10/5 55/11/5 57/12/4
f 1/2/1 5/13/1 59/14/1 53/3/1
f 5/15/6 1/16/2 4/17/2 6/18/6
f 5/13/1 7/19/1 63/20/1 59/14/1
f 7/21/7 5/22/6 6/23/6 8/24/7
f 7/19/1 9/25/1 67/26/1 63/20/1
f 9/27/8 7/28/7 8/29/7 10/30/8
f 9/25/1 11/31/1 71/32/1 67/26/1
f 11/33/9 9/34/8 10/35/8 12/36/9
f 11/31/1 13/37/1 75/38/1 71/32/1
f 13/39/10 11/40/9 12/41/9 14/42/10
f 13/37/1 15/43/1 79/44/1 75/38/1
f 15/45/11 13/46/10 14/47/10 16/48/11
f 15/43/1 17/49/1 83/50/1 79/44/1
f 17/51/12 15/52/11 16/53/11 18/54/12
f 17/49/1 19/55/1 87/56/1 83/50/1
f 19/57/13 17/58/12 18/59/12 20/60/13
f 19/55/1 21/61/1 91/62/1 87/56/1
f 21/63/14 19/64/13 20/65/13 22/66/14
f 21/61/1 23/67/1 95/68/1 91/62/1
f 23/69/15 21/70/14 22/71/14 24/72/15
f 23/67/1 25/73/1 99/74/1 95/68/1
f 25/75/16 23/76/15 24/77/15 26/78/16
f 25/73/1 27/79/1 103/80/1 99/74/1
f 27/81/17 25/82/16 26/83/16 28/84/17
f 27/79/1 29/85/1 107/86/1 103/80/1
f 29/87/18 27/88/17 28/89/17 30/90/18
f 29/85/1 31/91/1 111/92/1 107/86/1
f 31/93/19 29/94/18 30/95/18 32/96/19
f 31/91/1 33/97/1 115/98/1 111/92/1
f 33/99/20 31/100/19 32/101/19 34/102/20
f 33/97/1 35/103/1 119/104/1 115/98/1
f 35/105/21 33/106/20 34/107/20 36/108/21
f 35/103/1 37/109/1 123/110/1 119/104/1
f 37/111/22 35/112/21 36/113/21 38/114/22
f 37/109/1 39/115/1 127/116/1 123/110/1
f 39/117/23 37/118/22 38/119/22 40/120/23
f 39/115/1 41/121/1 131/122/1 127/116/1
f 41/123/24 39/124/23 40/125/23 42/126/24
f 41/121/1 43/127/1 135/128/1 131/122/1
f 43/129/25 41/130/24 42/131/24 44/132/25
f 43/127/1 45/133/1 139/134/1 135/128/1
f 45/135/26 43/136/25 44/137/25 46/138/26
f 45/133/1 47/139/1 143/140/1 139/134/1
f 47/141/27 45/142/26 46/143/26 48/144/27
f 47/139/1 49/145/1 148/146/1 143/140/1
f 49/147/28 47/148/27 48/149/27 50/150/28
f 54/10/5 60/151/29 61/152/29 55/11/5
f 6/153/30 4/154/30 56/155/30 62/156/30
f 4/154/30 3/157/30 58/158/30 56/155/30
f 60/159/29 64/160/31 65/161/31 61/162/29
f 8/163/30 6/153/30 62/156/30 66/164/30
f 64/165/31 68/166/32 69/167/32 65/168/31
f 10/169/30 8/163/30 66/164/30 70/170/30
f 68/171/32 72/172/33 73/173/33 69/174/32
f 12/175/30 10/169/30 70/170/30 74/176/30
f 72/177/33 76/178/34 77/179/34 73/180/33
f 14/181/30 12/175/30 74/176/30 78/182/30
f 76/183/34 80/184/35 81/185/35 77/186/34
f 16/187/30 14/181/30 78/182/30 82/188/30
f 80/189/35 84/190/36 85/191/36 81/192/35
f 18/193/30 16/187/30 82/188/30 86/194/30
f 84/195/36 88/196/37 89/197/37 85/198/36
f 20/199/30 18/193/30 86/194/30 90/200/30
f 88/201/37 92/202/38 93/203/38 89/204/37
f 22/205/30 20/199/30 90/200/30 94/206/30
f 92/207/38 96/208/39 97/209/39 93/210/38
f 24/211/30 22/205/30 94/206/30 98/212/30
f 96/213/39 100/214/40 101/215/40 97/216/39
f 26/217/30 24/211/30 98/212/30 102/218/30
f 100/219/40 104/220/41 105/221/41 101/222/40
f 28/223/30 26/217/30 102/218/30 106/224/30
f 104/225/41 108/226/42 109/227/42 105/228/41
f 30/229/30 28/223/30 106/224/30 110/230/30
f 108/231/42 112/232/43 113/233/43 109/234/42
f 32/235/30 30/229/30 110/230/30 114/236/30
f 112/237/43 116/238/44 117/239/44 113/240/43
f 34/241/30 32/235/30 114/236/30 118/242/30
f 116/243/44 120/244/45 121/245/45 117/246/44
f 36/247/30 34/241/30 118/242/30 122/248/30
f 120/249/45 124/250/46 125/251/46 121/252/45
f 38/253/30 36/247/30 122/248/30 126/254/30
f 124/255/46 128/256/47 129/257/47 125/258/46
f 40/259/30 38/253/30 126/254/30 130/260/30
f 128/261/47 132/262/48 133/263/48 129/264/47
f 42/265/30 40/259/30 130/260/30 134/266/30
f 132/267/48 136/268/49 137/269/49 133/270/48
f 44/271/30 42/265/30 134/266/30 138/272/30
f 136/273/49 140/274/50 141/275/50 137/276/49
f 46/277/30 44/271/30 138/272/30 142/278/30
f 140/279/50 144/280/51 145/281/51 141/282/50
f 48/283/30 46/277/30 142/278/30 146/284/30
f 144/285/51 147/286/52 150/287/52 145/288/51
f 50/289/30 48/283/30 146/284/30 149/290/30
f 50/291/53 149/292/53 150/293/53 147/294/53 148/295/53 49/296/53
f 51/4/54 53/3/55 54/297/55 52/298/54
f 56/155/56 58/158/57 57/299/57 55/300/56
f 53/3/55 59/14/58 60/301/58 54/297/55
f 55/11/56 61/152/59 62/302/59 56/303/56
f 59/14/58 63/20/60 64/304/60 60/301/58
f 61/162/59 65/161/61 66/305/61 62/306/59
f 63/20/60 67/26/62 68/307/62 64/304/60
f 65/168/61 69/167/63 70/308/63 66/309/61
f 67/26/62 71/32/64 72/310/64 68/307/62
f 69/174/63 73/173/65 74/311/65 70/312/63
f 71/32/64 75/38/66 76/313/66 72/310/64
f 73/180/65 77/179/67 78/314/67 74/315/65
f 75/38/66 79/44/68 80/316/68 76/313/66
f 77/186/67 81/185/69 82/317/69 78/318/67
f 79/44/68 83/50/70 84/319/70 80/316/68
f 81/192/69 85/191/71 86/320/71 82/321/69
f 83/50/70 87/56/72 88/322/72 84/319/70
f 85/198/71 89/197/73 90/323/73 86/324/71
f 87/56/72 91/62/74 92/325/74 88/322/72
f 89/204/73 93/203/75 94/326/75 90/327/73
f 91/62/74 95/68/76 96/328/76 92/325/74
f 93/210/75 97/209/77 98/329/77 94/330/75
f 95/68/76 99/74/78 100/331/78 96/328/76
f 97/216/77 101/215/79 102/332/79 98/333/77
f 99/74/78 103/80/80 104/334/80 100/331/78
f 101/222/79 105/221/81 106/335/81 102/336/79
f 103/80/80 107/86/82 108/337/82 104/334/80
f 105/228/81 109/227/83 110/338/83 106/339/81
f 107/86/82 111/92/84 112/340/84 108/337/82
f 109/234/83 113/233/85 114/341/85 110/342/83
f 111/92/84 115/98/86 116/343/86 112/340/84
f 113/240/85 117/239/87 118/344/87 114/345/85
f 115/98/86 119/104/88 120/346/88 116/343/86
f 117/246/87 121/245/89 122/347/89 118/348/87
f 119/104/88 123/110/90 124/349/90 120/346/88
f 121/252/89 125/251/91 126/350/91 122/351/89
f 123/110/90 127/116/92 128/352/92 124/349/90
f 125/258/91 129/257/93 130/353/93 126/354/91
f 127/116/92 131/122/94 132/355/94 128/352/92
f 129/264/93 133/263/95 134/356/95 130/357/93
f 131/122/94 135/128/96 136/358/96 132/355/94
f 133/270/95 137/269/97 138/359/97 134/360/95
f 135/128/96 139/134/98 140/361/98 136/358/96
f 137/276/97 141/275/99 142/362/99 138/363/97
f 139/134/98 143/140/100 144/364/100 140/361/98
f 141/282/99 145/281/101 146/365/101 142/366/99
f 143/140/100 148/146/102 147/367/102 144/364/100
f 145/288/101 150/287/103 149/368/103 146/369/101
f 57/370/104 58/371/104 3/372/104 2/373/104 51/374/104 52/375/104
