# Blender v2.80 (sub 75) OBJ File: ''
# www.blender.org
mtllib BeveledCubeColumn.mtl
o Cube_Cube.002
v -0.403641 0.000000 0.734267
v -0.394425 0.031466 0.750000
v -0.421283 0.031466 0.738875
v -0.399033 0.009216 0.745392
v -0.408005 0.013299 0.744803
v -0.408808 0.031466 0.746742
v -0.414766 0.009216 0.738875
v -0.734267 0.000000 0.403641
v -0.738875 0.031466 0.421283
v -0.750000 0.031466 0.394425
v -0.738875 0.009216 0.414766
v -0.744803 0.013299 0.408005
v -0.746742 0.031466 0.408808
v -0.745392 0.009216 0.399033
v -0.734267 3.000000 0.403641
v -0.750000 2.968534 0.394425
v -0.738875 2.968534 0.421283
v -0.745392 2.990784 0.399033
v -0.744803 2.986701 0.408005
v -0.746742 2.968534 0.408808
v -0.738875 2.990784 0.414766
v -0.394425 2.968534 0.750000
v -0.403641 3.000000 0.734267
v -0.421283 2.968534 0.738875
v -0.399033 2.990784 0.745392
v -0.408005 2.986701 0.744803
v -0.414766 2.990784 0.738875
v -0.408808 2.968534 0.746742
v -0.734267 0.000000 -0.403641
v -0.750000 0.031466 -0.394425
v -0.738875 0.031466 -0.421283
v -0.745392 0.009216 -0.399033
v -0.744803 0.013299 -0.408005
v -0.746742 0.031466 -0.408808
v -0.738875 0.009216 -0.414766
v -0.394425 0.031466 -0.750000
v -0.403641 0.000000 -0.734267
v -0.421283 0.031466 -0.738875
v -0.399033 0.009216 -0.745392
v -0.408005 0.013299 -0.744803
v -0.414766 0.009216 -0.738875
v -0.408808 0.031466 -0.746742
v -0.403641 3.000000 -0.734267
v -0.394425 2.968534 -0.750000
v -0.421283 2.968534 -0.738875
v -0.399033 2.990784 -0.745392
v -0.408005 2.986701 -0.744803
v -0.408808 2.968534 -0.746742
v -0.414766 2.990784 -0.738875
v -0.734267 3.000000 -0.403641
v -0.738875 2.968534 -0.421283
v -0.750000 2.968534 -0.394425
v -0.738875 2.990784 -0.414766
v -0.744803 2.986701 -0.408005
v -0.746742 2.968534 -0.408808
v -0.745392 2.990784 -0.399033
v 0.734267 0.000000 0.403641
v 0.750000 0.031466 0.394425
v 0.738875 0.031466 0.421283
v 0.745392 0.009216 0.399033
v 0.744803 0.013299 0.408005
v 0.746742 0.031466 0.408808
v 0.738875 0.009216 0.414766
v 0.394425 0.031466 0.750000
v 0.403641 0.000000 0.734267
v 0.421283 0.031466 0.738875
v 0.399033 0.009216 0.745392
v 0.408005 0.013299 0.744803
v 0.414766 0.009216 0.738875
v 0.408808 0.031466 0.746742
v 0.403641 3.000000 0.734267
v 0.394425 2.968534 0.750000
v 0.421283 2.968534 0.738875
v 0.399033 2.990784 0.745392
v 0.408005 2.986701 0.744803
v 0.408808 2.968534 0.746742
v 0.414766 2.990784 0.738875
v 0.734267 3.000000 0.403641
v 0.738875 2.968534 0.421283
v 0.750000 2.968534 0.394425
v 0.738875 2.990784 0.414766
v 0.744803 2.986701 0.408005
v 0.746742 2.968534 0.408808
v 0.745392 2.990784 0.399033
v 0.403641 0.000000 -0.734267
v 0.394425 0.031466 -0.750000
v 0.421283 0.031466 -0.738875
v 0.399033 0.009216 -0.745392
v 0.408005 0.013299 -0.744803
v 0.408808 0.031466 -0.746742
v 0.414766 0.009216 -0.738875
v 0.750000 0.031466 -0.394425
v 0.734267 0.000000 -0.403641
v 0.738875 0.031466 -0.421283
v 0.745392 0.009216 -0.399033
v 0.744803 0.013299 -0.408005
v 0.738875 0.009216 -0.414766
v 0.746742 0.031466 -0.408808
v 0.734267 3.000000 -0.403641
v 0.750000 2.968534 -0.394425
v 0.738875 2.968534 -0.421283
v 0.745392 2.990784 -0.399033
v 0.744803 2.986701 -0.408005
v 0.746742 2.968534 -0.408808
v 0.738875 2.990784 -0.414766
v 0.403641 3.000000 -0.734267
v 0.421283 2.968534 -0.738875
v 0.394425 2.968534 -0.750000
v 0.414766 2.990784 -0.738875
v 0.408005 2.986701 -0.744803
v 0.408808 2.968534 -0.746742
v 0.399033 2.990784 -0.745392
vt 0.377622 0.059262
vt 0.622378 0.059262
vt 0.622378 0.190738
vt 0.377622 0.190738
vt 0.622378 0.552932
vt 0.377622 0.552932
vt 0.377622 0.447068
vt 0.622378 0.447068
vt 0.622378 0.302932
vt 0.377622 0.302932
vt 0.377622 0.197068
vt 0.622378 0.197068
vt 0.627622 0.557726
vt 0.682726 0.502622
vt 0.817274 0.502622
vt 0.872378 0.557726
vt 0.872378 0.692273
vt 0.817274 0.747378
vt 0.682727 0.747378
vt 0.627622 0.692273
vt 0.622378 0.802932
vt 0.377622 0.802932
vt 0.377622 0.697068
vt 0.622378 0.697068
vt 0.377622 0.809262
vt 0.622378 0.809262
vt 0.622378 0.940738
vt 0.377622 0.940738
vt 0.377622 0.309262
vt 0.622378 0.309262
vt 0.622378 0.440738
vt 0.377622 0.440738
vt 0.377622 0.559262
vt 0.622378 0.559262
vt 0.622378 0.690737
vt 0.377622 0.690737
vt 0.377622 0.945214
vt 0.622378 0.945214
vt 0.622378 0.998146
vt 0.377622 0.998146
vt 0.182726 0.747378
vt 0.183494 0.750000
vt 0.181999 0.750000
vt 0.180329 0.748689
vt 0.377622 0.943360
vt 0.376108 0.943360
vt 0.375000 0.941505
vt 0.375000 0.944671
vt 0.375000 0.943613
vt 0.127622 0.692273
vt 0.126311 0.694671
vt 0.125254 0.693613
vt 0.125000 0.691505
vt 0.377622 1.000000
vt 0.376108 1.000000
vt 0.375000 0.998689
vt 0.375000 0.058494
vt 0.375000 0.056999
vt 0.377622 0.056640
vt 0.875000 0.691505
vt 0.875000 0.693001
vt 0.873689 0.694671
vt 0.622378 0.056640
vt 0.623892 0.056640
vt 0.625000 0.058494
vt 0.625000 0.998689
vt 0.625000 0.999746
vt 0.622378 1.000000
vt 0.625000 0.941506
vt 0.625000 0.943001
vt 0.622378 0.943360
vt 0.819671 0.748689
vt 0.818613 0.749746
vt 0.816506 0.750000
vt 0.623892 0.943360
vt 0.625000 0.944671
vt 0.127622 0.557726
vt 0.125000 0.558494
vt 0.125000 0.556999
vt 0.126311 0.555329
vt 0.377622 0.193360
vt 0.376108 0.193360
vt 0.375000 0.191506
vt 0.375000 0.195982
vt 0.375000 0.193867
vt 0.375000 0.308494
vt 0.375000 0.306999
vt 0.377622 0.306640
vt 0.182726 0.502622
vt 0.180329 0.501311
vt 0.181387 0.500254
vt 0.183494 0.500000
vt 0.376108 0.306640
vt 0.375000 0.304018
vt 0.816506 0.500000
vt 0.818001 0.500000
vt 0.819671 0.501311
vt 0.622378 0.306640
vt 0.623892 0.306640
vt 0.625000 0.308494
vt 0.625000 0.304018
vt 0.625000 0.306133
vt 0.873689 0.555329
vt 0.874746 0.556387
vt 0.875000 0.558494
vt 0.622378 0.193360
vt 0.623892 0.193360
vt 0.625000 0.195982
vt 0.625000 0.191506
vt 0.625000 0.193001
vt 0.372378 0.692273
vt 0.375000 0.691505
vt 0.375369 0.693409
vt 0.373689 0.694671
vt 0.377622 0.693360
vt 0.375000 0.695982
vt 0.375000 0.808494
vt 0.375000 0.806999
vt 0.377622 0.806640
vt 0.317274 0.747378
vt 0.319671 0.748689
vt 0.318613 0.749746
vt 0.316506 0.750000
vt 0.376108 0.806640
vt 0.375000 0.804018
vt 0.683495 0.750000
vt 0.681999 0.750000
vt 0.680329 0.748689
vt 0.622378 0.806640
vt 0.623892 0.806640
vt 0.625000 0.808494
vt 0.625000 0.804018
vt 0.625000 0.806133
vt 0.626311 0.694671
vt 0.624715 0.693325
vt 0.625000 0.691505
vt 0.622378 0.693360
vt 0.625000 0.695982
vt 0.317274 0.502622
vt 0.316505 0.500000
vt 0.318001 0.500000
vt 0.319671 0.501311
vt 0.377622 0.443360
vt 0.376108 0.443360
vt 0.375000 0.441506
vt 0.375000 0.445982
vt 0.375000 0.443867
vt 0.375000 0.558494
vt 0.375285 0.556675
vt 0.377622 0.556640
vt 0.372378 0.557726
vt 0.373689 0.555329
vt 0.375000 0.554018
vt 0.625000 0.558494
vt 0.624631 0.556591
vt 0.626311 0.555329
vt 0.622378 0.556640
vt 0.625000 0.554018
vt 0.680329 0.501311
vt 0.681387 0.500254
vt 0.683495 0.500000
vt 0.622378 0.443360
vt 0.623892 0.443360
vt 0.625000 0.445982
vt 0.625000 0.441506
vt 0.625000 0.443001
vn -0.9915 -0.0882 0.0959
vn -0.9915 0.0882 0.0959
vn -0.9915 0.0882 -0.0959
vn -0.9915 -0.0882 -0.0959
vn 0.7689 0.0882 -0.6333
vn 0.7689 -0.0882 -0.6333
vn 0.6333 -0.0882 -0.7689
vn 0.6333 0.0882 -0.7689
vn -0.6333 0.0882 -0.7689
vn -0.6333 -0.0882 -0.7689
vn -0.7689 -0.0882 -0.6333
vn -0.7689 0.0882 -0.6333
vn 0.0000 1.0000 0.0000
vn 0.6333 0.0882 0.7689
vn 0.6333 -0.0882 0.7689
vn 0.7689 -0.0882 0.6333
vn 0.7689 0.0882 0.6333
vn 0.0959 -0.0882 0.9915
vn 0.0959 0.0882 0.9915
vn -0.0959 0.0882 0.9915
vn -0.0959 -0.0882 0.9915
vn -0.0959 -0.0882 -0.9915
vn -0.0959 0.0882 -0.9915
vn 0.0959 0.0882 -0.9915
vn 0.0959 -0.0882 -0.9915
vn 0.9915 -0.0882 -0.0959
vn 0.9915 0.0882 -0.0959
vn 0.9915 0.0882 0.0959
vn 0.9915 -0.0882 0.0959
vn -0.6333 -0.0882 0.7689
vn -0.6333 0.0882 0.7689
vn -0.7689 0.0882 0.6333
vn -0.7689 -0.0882 0.6333
vn -0.2528 -0.7508 0.6102
vn -0.1307 -0.7264 0.6747
vn -0.2905 -0.6510 0.7013
vn -0.3847 -0.7264 0.5695
vn -0.3817 -0.0711 0.9215
vn -0.3787 -0.1431 0.9144
vn -0.0926 -0.1724 0.9807
vn -0.6279 -0.1724 0.7589
vn -0.6102 -0.7508 0.2528
vn -0.5695 -0.7264 0.3847
vn -0.7013 -0.6510 0.2905
vn -0.6747 -0.7264 0.1307
vn -0.9215 -0.0711 0.3817
vn -0.9144 -0.1431 0.3787
vn -0.7589 -0.1724 0.6279
vn -0.9807 -0.1724 0.0926
vn -0.6102 0.7508 0.2528
vn -0.6747 0.7264 0.1307
vn -0.7013 0.6510 0.2905
vn -0.5695 0.7264 0.3847
vn -0.9215 0.0711 0.3817
vn -0.9144 0.1431 0.3787
vn -0.9807 0.1724 0.0926
vn -0.7589 0.1724 0.6279
vn -0.0926 0.1724 0.9807
vn -0.3787 0.1431 0.9144
vn -0.3817 0.0711 0.9215
vn -0.2528 0.7508 0.6102
vn -0.3847 0.7264 0.5695
vn -0.2905 0.6510 0.7013
vn -0.1307 0.7264 0.6747
vn -0.6279 0.1724 0.7589
vn -0.6102 -0.7508 -0.2528
vn -0.6747 -0.7264 -0.1307
vn -0.7013 -0.6510 -0.2905
vn -0.5695 -0.7264 -0.3847
vn -0.9215 -0.0711 -0.3817
vn -0.9144 -0.1431 -0.3787
vn -0.9807 -0.1724 -0.0926
vn -0.7589 -0.1724 -0.6279
vn -0.0926 -0.1724 -0.9807
vn -0.3787 -0.1431 -0.9144
vn -0.3817 -0.0711 -0.9215
vn -0.2528 -0.7508 -0.6102
vn -0.3847 -0.7264 -0.5695
vn -0.2905 -0.6510 -0.7013
vn -0.1307 -0.7264 -0.6747
vn -0.6279 -0.1724 -0.7589
vn -0.2528 0.7508 -0.6102
vn -0.1307 0.7264 -0.6747
vn -0.2905 0.6510 -0.7013
vn -0.3847 0.7264 -0.5695
vn -0.3817 0.0711 -0.9215
vn -0.3787 0.1431 -0.9144
vn -0.0926 0.1724 -0.9807
vn -0.6279 0.1724 -0.7589
vn -0.6102 0.7508 -0.2528
vn -0.5695 0.7264 -0.3847
vn -0.7013 0.6510 -0.2905
vn -0.6747 0.7264 -0.1307
vn -0.9215 0.0711 -0.3817
vn -0.9144 0.1431 -0.3787
vn -0.7589 0.1724 -0.6279
vn -0.9807 0.1724 -0.0926
vn 0.6102 -0.7508 0.2528
vn 0.6747 -0.7264 0.1307
vn 0.7013 -0.6510 0.2905
vn 0.5695 -0.7264 0.3847
vn 0.9215 -0.0711 0.3817
vn 0.9144 -0.1431 0.3787
vn 0.9807 -0.1724 0.0926
vn 0.7589 -0.1724 0.6279
vn 0.0926 -0.1724 0.9807
vn 0.3787 -0.1431 0.9144
vn 0.3817 -0.0711 0.9215
vn 0.2528 -0.7508 0.6102
vn 0.3847 -0.7264 0.5695
vn 0.2905 -0.6510 0.7013
vn 0.1307 -0.7264 0.6747
vn 0.6279 -0.1724 0.7589
vn 0.2528 0.7508 0.6102
vn 0.1307 0.7264 0.6747
vn 0.2905 0.6510 0.7013
vn 0.3847 0.7264 0.5695
vn 0.3817 0.0711 0.9215
vn 0.3787 0.1431 0.9144
vn 0.0926 0.1724 0.9807
vn 0.6279 0.1724 0.7589
vn 0.6102 0.7508 0.2528
vn 0.5695 0.7264 0.3847
vn 0.7013 0.6510 0.2905
vn 0.6747 0.7264 0.1307
vn 0.9215 0.0711 0.3817
vn 0.9144 0.1431 0.3787
vn 0.7589 0.1724 0.6279
vn 0.9807 0.1724 0.0926
vn 0.2528 -0.7508 -0.6102
vn 0.1307 -0.7264 -0.6747
vn 0.2905 -0.6510 -0.7013
vn 0.3847 -0.7264 -0.5695
vn 0.3817 -0.0711 -0.9215
vn 0.3787 -0.1431 -0.9144
vn 0.0926 -0.1724 -0.9807
vn 0.6279 -0.1724 -0.7589
vn 0.9807 -0.1724 -0.0926
vn 0.9144 -0.1431 -0.3787
vn 0.9215 -0.0711 -0.3817
vn 0.6102 -0.7508 -0.2528
vn 0.5695 -0.7264 -0.3847
vn 0.7013 -0.6510 -0.2905
vn 0.6747 -0.7264 -0.1307
vn 0.7589 -0.1724 -0.6279
vn 0.6102 0.7508 -0.2528
vn 0.6747 0.7264 -0.1307
vn 0.7013 0.6510 -0.2905
vn 0.5695 0.7264 -0.3847
vn 0.9215 0.0711 -0.3817
vn 0.9144 0.1431 -0.3787
vn 0.9807 0.1724 -0.0926
vn 0.7589 0.1724 -0.6279
vn 0.2528 0.7508 -0.6102
vn 0.3847 0.7264 -0.5695
vn 0.2905 0.6510 -0.7013
vn 0.1307 0.7264 -0.6747
vn 0.3817 0.0711 -0.9215
vn 0.3787 0.1431 -0.9144
vn 0.6279 0.1724 -0.7589
vn 0.0926 0.1724 -0.9807
vn 0.0000 -1.0000 0.0000
usemtl None
s 1
f 10/1/1 16/2/2 52/3/3 30/4/4
f 101/5/5 94/6/6 87/7/7 107/8/8
f 45/9/9 38/10/10 31/11/11 51/12/12
f 99/13/13 106/14/13 43/15/13 50/16/13 15/17/13 23/18/13 71/19/13 78/20/13
f 73/21/14 66/22/15 59/23/16 79/24/17
f 64/25/18 72/26/19 22/27/20 2/28/21
f 36/29/22 44/30/23 108/31/24 86/32/25
f 92/33/26 100/34/27 80/35/28 58/36/29
f 3/37/30 24/38/31 17/39/32 9/40/33
f 1/41/34 4/42/35 5/43/36 7/44/37
f 2/28/21 6/45/38 5/46/39 4/47/40
f 3/37/30 7/48/41 5/49/39 6/45/38
f 8/50/42 11/51/43 12/52/44 14/53/45
f 9/40/33 13/54/46 12/55/47 11/56/48
f 10/1/1 14/57/49 12/58/47 13/59/46
f 15/17/50 18/60/51 19/61/52 21/62/53
f 16/2/2 20/63/54 19/64/55 18/65/56
f 17/39/32 21/66/57 19/67/55 20/68/54
f 22/27/20 25/69/58 26/70/59 28/71/60
f 23/18/61 27/72/62 26/73/63 25/74/64
f 24/38/31 28/71/60 26/75/59 27/76/65
f 29/77/66 32/78/67 33/79/68 35/80/69
f 30/4/4 34/81/70 33/82/71 32/83/72
f 31/11/11 35/84/73 33/85/71 34/81/70
f 36/29/22 39/86/74 40/87/75 42/88/76
f 37/89/77 41/90/78 40/91/79 39/92/80
f 38/10/10 42/88/76 40/93/75 41/94/81
f 43/15/82 46/95/83 47/96/84 49/97/85
f 44/30/23 48/98/86 47/99/87 46/100/88
f 45/9/9 49/101/89 47/102/87 48/98/86
f 50/16/90 53/103/91 54/104/92 56/105/93
f 51/12/12 55/106/94 54/107/95 53/108/96
f 52/3/3 56/109/97 54/110/95 55/106/94
f 57/111/98 60/112/99 61/113/100 63/114/101
f 58/36/29 62/115/102 61/113/103 60/112/104
f 59/23/16 63/116/105 61/113/103 62/115/102
f 64/25/18 67/117/106 68/118/107 70/119/108
f 65/120/109 69/121/110 68/122/111 67/123/112
f 66/22/15 70/119/108 68/124/107 69/125/113
f 71/19/114 74/126/115 75/127/116 77/128/117
f 72/26/19 76/129/118 75/130/119 74/131/120
f 73/21/14 77/132/121 75/133/119 76/129/118
f 78/20/122 81/134/123 82/135/124 84/136/125
f 79/24/17 83/137/126 82/135/127 81/138/128
f 80/35/28 84/136/129 82/135/127 83/137/126
f 85/139/130 88/140/131 89/141/132 91/142/133
f 86/32/25 90/143/134 89/144/135 88/145/136
f 87/7/7 91/146/137 89/147/135 90/143/134
f 92/33/26 95/148/138 96/149/139 98/150/140
f 93/151/141 97/152/142 96/149/143 95/148/144
f 94/6/6 98/150/140 96/149/139 97/153/145
f 99/13/146 102/154/147 103/155/148 105/156/149
f 100/34/27 104/157/150 103/155/151 102/154/152
f 101/5/5 105/158/153 103/155/151 104/157/150
f 106/14/154 109/159/155 110/160/156 112/161/157
f 107/8/8 111/162/158 110/163/159 109/164/160
f 108/31/24 112/165/161 110/166/159 111/162/158
f 8/50/42 1/41/34 7/44/37 11/51/43
f 11/56/48 7/48/41 3/37/30 9/40/33
f 2/28/21 22/27/20 28/71/60 6/45/38
f 6/45/38 28/71/60 24/38/31 3/37/30
f 23/18/61 15/17/50 21/62/53 27/72/62
f 27/76/65 21/66/57 17/39/32 24/38/31
f 16/2/2 10/1/1 13/59/46 20/63/54
f 20/68/54 13/54/46 9/40/33 17/39/32
f 50/16/90 43/15/82 49/97/85 53/103/91
f 53/108/96 49/101/89 45/9/9 51/12/12
f 44/30/23 36/29/22 42/88/76 48/98/86
f 48/98/86 42/88/76 38/10/10 45/9/9
f 37/89/77 29/77/66 35/80/69 41/90/78
f 41/94/81 35/84/73 31/11/11 38/10/10
f 30/4/4 52/3/3 55/106/94 34/81/70
f 34/81/70 55/106/94 51/12/12 31/11/11
f 106/14/154 99/13/146 105/156/149 109/159/155
f 109/164/160 105/158/153 101/5/5 107/8/8
f 100/34/27 92/33/26 98/150/140 104/157/150
f 104/157/150 98/150/140 94/6/6 101/5/5
f 93/151/141 85/139/130 91/142/133 97/152/142
f 97/153/145 91/146/137 87/7/7 94/6/6
f 86/32/25 108/31/24 111/162/158 90/143/134
f 90/143/134 111/162/158 107/8/8 87/7/7
f 78/20/122 71/19/114 77/128/117 81/134/123
f 81/138/128 77/132/121 73/21/14 79/24/17
f 72/26/19 64/25/18 70/119/108 76/129/118
f 76/129/118 70/119/108 66/22/15 73/21/14
f 65/120/109 57/111/98 63/114/101 69/121/110
f 69/125/113 63/116/105 59/23/16 66/22/15
f 58/36/29 80/35/28 83/137/126 62/115/102
f 62/115/102 83/137/126 79/24/17 59/23/16
f 10/1/1 30/4/4 32/83/72 14/57/49
f 14/53/45 32/78/67 29/77/66 8/50/42
f 36/29/22 86/32/25 88/145/136 39/86/74
f 39/92/80 88/140/131 85/139/130 37/89/77
f 92/33/26 58/36/29 60/112/104 95/148/138
f 95/148/144 60/112/99 57/111/98 93/151/141
f 64/25/18 2/28/21 4/47/40 67/117/106
f 67/123/112 4/42/35 1/41/34 65/120/109
f 15/17/50 50/16/90 56/105/93 18/60/51
f 18/65/56 56/109/97 52/3/3 16/2/2
f 71/19/114 23/18/61 25/74/64 74/126/115
f 74/131/120 25/69/58 22/27/20 72/26/19
f 80/35/28 100/34/27 102/154/152 84/136/129
f 84/136/125 102/154/147 99/13/146 78/20/122
f 108/31/24 44/30/23 46/100/88 112/165/161
f 112/161/157 46/95/83 43/15/82 106/14/154
f 29/77/162 37/89/162 85/139/162 93/151/162 57/111/162 65/120/162 1/41/162 8/50/162
